<mxfile host="app.diagrams.net" modified="2021-12-14T22:46:00.974Z" agent="5.0 (Windows NT 6.1; Win64; x64) AppleWebKit/537.36 (KHTML, like Gecko) Chrome/96.0.4664.110 Safari/537.36" etag="_zBQObpGTPHVvm9Gpq4t" version="15.9.6" type="github">
  <diagram id="C5RBs43oDa-KdzZeNtuy" name="Page-1">
    <mxGraphModel dx="1128" dy="979" grid="1" gridSize="20" guides="1" tooltips="1" connect="1" arrows="1" fold="1" page="1" pageScale="1" pageWidth="827" pageHeight="1169" math="0" shadow="0">
      <root>
        <mxCell id="WIyWlLk6GJQsqaUBKTNV-0" />
        <mxCell id="WIyWlLk6GJQsqaUBKTNV-1" parent="WIyWlLk6GJQsqaUBKTNV-0" />
        <mxCell id="6rxGdcta7ztDB5Gd1GuF-165" value="" style="edgeStyle=orthogonalEdgeStyle;rounded=0;orthogonalLoop=1;jettySize=auto;html=1;fontSize=14;entryX=0.5;entryY=0;entryDx=0;entryDy=0;" parent="WIyWlLk6GJQsqaUBKTNV-1" source="6rxGdcta7ztDB5Gd1GuF-166" target="daI0AMhPsT-8VJa9p6D3-0" edge="1">
          <mxGeometry relative="1" as="geometry">
            <mxPoint x="1168.571428571429" y="60" as="targetPoint" />
          </mxGeometry>
        </mxCell>
        <mxCell id="6rxGdcta7ztDB5Gd1GuF-166" value="&lt;font style=&quot;font-size: 20px&quot;&gt;Начало&lt;/font&gt;" style="rounded=1;whiteSpace=wrap;html=1;fontSize=12;glass=0;strokeWidth=1;shadow=0;" parent="WIyWlLk6GJQsqaUBKTNV-1" vertex="1">
          <mxGeometry x="1117.13" width="120" height="40" as="geometry" />
        </mxCell>
        <mxCell id="daI0AMhPsT-8VJa9p6D3-3" value="" style="edgeStyle=orthogonalEdgeStyle;rounded=0;orthogonalLoop=1;jettySize=auto;html=1;fontSize=18;" parent="WIyWlLk6GJQsqaUBKTNV-1" source="daI0AMhPsT-8VJa9p6D3-0" target="daI0AMhPsT-8VJa9p6D3-2" edge="1">
          <mxGeometry relative="1" as="geometry" />
        </mxCell>
        <mxCell id="daI0AMhPsT-8VJa9p6D3-0" value="&lt;font style=&quot;font-size: 18px&quot;&gt;text = &quot;9abobabiba&quot;&lt;br&gt;&lt;/font&gt;" style="whiteSpace=wrap;html=1;" parent="WIyWlLk6GJQsqaUBKTNV-1" vertex="1">
          <mxGeometry x="1094.25" y="60" width="165.75" height="60" as="geometry" />
        </mxCell>
        <mxCell id="daI0AMhPsT-8VJa9p6D3-1" value="2" style="text;html=1;align=center;verticalAlign=middle;resizable=0;points=[];autosize=1;strokeColor=none;fillColor=none;fontSize=18;" parent="WIyWlLk6GJQsqaUBKTNV-1" vertex="1">
          <mxGeometry x="1277.13" y="70" width="40" height="40" as="geometry" />
        </mxCell>
        <mxCell id="daI0AMhPsT-8VJa9p6D3-8" value="" style="edgeStyle=orthogonalEdgeStyle;rounded=0;orthogonalLoop=1;jettySize=auto;html=1;fontSize=18;" parent="WIyWlLk6GJQsqaUBKTNV-1" source="daI0AMhPsT-8VJa9p6D3-2" target="daI0AMhPsT-8VJa9p6D3-7" edge="1">
          <mxGeometry relative="1" as="geometry" />
        </mxCell>
        <mxCell id="daI0AMhPsT-8VJa9p6D3-2" value="&lt;font style=&quot;font-size: 18px&quot;&gt;dig = text[0]&lt;br&gt;&lt;/font&gt;" style="whiteSpace=wrap;html=1;" parent="WIyWlLk6GJQsqaUBKTNV-1" vertex="1">
          <mxGeometry x="1094.25" y="150" width="165.75" height="60" as="geometry" />
        </mxCell>
        <mxCell id="daI0AMhPsT-8VJa9p6D3-5" value="1" style="text;html=1;align=center;verticalAlign=middle;resizable=0;points=[];autosize=1;strokeColor=none;fillColor=none;fontSize=18;" parent="WIyWlLk6GJQsqaUBKTNV-1" vertex="1">
          <mxGeometry x="1277.13" width="40" height="40" as="geometry" />
        </mxCell>
        <mxCell id="daI0AMhPsT-8VJa9p6D3-6" value="3" style="text;html=1;align=center;verticalAlign=middle;resizable=0;points=[];autosize=1;strokeColor=none;fillColor=none;fontSize=18;" parent="WIyWlLk6GJQsqaUBKTNV-1" vertex="1">
          <mxGeometry x="1277.1299999999999" y="160" width="40" height="40" as="geometry" />
        </mxCell>
        <mxCell id="daI0AMhPsT-8VJa9p6D3-11" value="" style="edgeStyle=orthogonalEdgeStyle;rounded=0;orthogonalLoop=1;jettySize=auto;html=1;fontSize=18;" parent="WIyWlLk6GJQsqaUBKTNV-1" source="daI0AMhPsT-8VJa9p6D3-7" target="daI0AMhPsT-8VJa9p6D3-10" edge="1">
          <mxGeometry relative="1" as="geometry" />
        </mxCell>
        <mxCell id="daI0AMhPsT-8VJa9p6D3-7" value="&lt;font style=&quot;font-size: 18px&quot;&gt;dig_int = stoi(dig)&lt;br&gt;&lt;/font&gt;" style="whiteSpace=wrap;html=1;" parent="WIyWlLk6GJQsqaUBKTNV-1" vertex="1">
          <mxGeometry x="1094.25" y="240" width="165.75" height="60" as="geometry" />
        </mxCell>
        <mxCell id="daI0AMhPsT-8VJa9p6D3-9" value="4" style="text;html=1;align=center;verticalAlign=middle;resizable=0;points=[];autosize=1;strokeColor=none;fillColor=none;fontSize=18;" parent="WIyWlLk6GJQsqaUBKTNV-1" vertex="1">
          <mxGeometry x="1277.13" y="250" width="40" height="40" as="geometry" />
        </mxCell>
        <mxCell id="daI0AMhPsT-8VJa9p6D3-14" value="" style="edgeStyle=orthogonalEdgeStyle;rounded=0;orthogonalLoop=1;jettySize=auto;html=1;fontSize=18;" parent="WIyWlLk6GJQsqaUBKTNV-1" source="daI0AMhPsT-8VJa9p6D3-10" target="daI0AMhPsT-8VJa9p6D3-13" edge="1">
          <mxGeometry relative="1" as="geometry" />
        </mxCell>
        <mxCell id="daI0AMhPsT-8VJa9p6D3-10" value="&lt;font style=&quot;font-size: 18px&quot;&gt;temp = text&lt;br&gt;&lt;/font&gt;" style="whiteSpace=wrap;html=1;" parent="WIyWlLk6GJQsqaUBKTNV-1" vertex="1">
          <mxGeometry x="1094.26" y="324" width="165.75" height="60" as="geometry" />
        </mxCell>
        <mxCell id="daI0AMhPsT-8VJa9p6D3-12" value="5" style="text;html=1;align=center;verticalAlign=middle;resizable=0;points=[];autosize=1;strokeColor=none;fillColor=none;fontSize=18;" parent="WIyWlLk6GJQsqaUBKTNV-1" vertex="1">
          <mxGeometry x="1277.13" y="334" width="40" height="40" as="geometry" />
        </mxCell>
        <mxCell id="daI0AMhPsT-8VJa9p6D3-17" value="" style="edgeStyle=orthogonalEdgeStyle;rounded=0;orthogonalLoop=1;jettySize=auto;html=1;fontSize=18;" parent="WIyWlLk6GJQsqaUBKTNV-1" source="daI0AMhPsT-8VJa9p6D3-13" target="daI0AMhPsT-8VJa9p6D3-16" edge="1">
          <mxGeometry relative="1" as="geometry" />
        </mxCell>
        <mxCell id="daI0AMhPsT-8VJa9p6D3-13" value="&lt;font style=&quot;font-size: 18px&quot;&gt;temp = temp.erase(0, 1)&lt;br&gt;&lt;/font&gt;" style="whiteSpace=wrap;html=1;" parent="WIyWlLk6GJQsqaUBKTNV-1" vertex="1">
          <mxGeometry x="1077.13" y="420" width="200" height="60" as="geometry" />
        </mxCell>
        <mxCell id="daI0AMhPsT-8VJa9p6D3-15" value="6" style="text;html=1;align=center;verticalAlign=middle;resizable=0;points=[];autosize=1;strokeColor=none;fillColor=none;fontSize=18;" parent="WIyWlLk6GJQsqaUBKTNV-1" vertex="1">
          <mxGeometry x="1277.13" y="430" width="40" height="40" as="geometry" />
        </mxCell>
        <mxCell id="daI0AMhPsT-8VJa9p6D3-20" value="" style="edgeStyle=orthogonalEdgeStyle;rounded=0;orthogonalLoop=1;jettySize=auto;html=1;fontSize=18;" parent="WIyWlLk6GJQsqaUBKTNV-1" source="daI0AMhPsT-8VJa9p6D3-16" target="daI0AMhPsT-8VJa9p6D3-19" edge="1">
          <mxGeometry relative="1" as="geometry" />
        </mxCell>
        <mxCell id="daI0AMhPsT-8VJa9p6D3-16" value="&lt;font style=&quot;font-size: 18px&quot;&gt;sravnenie = temp.size()&lt;br&gt;&lt;/font&gt;" style="whiteSpace=wrap;html=1;" parent="WIyWlLk6GJQsqaUBKTNV-1" vertex="1">
          <mxGeometry x="1077.1200000000001" y="525" width="200" height="60" as="geometry" />
        </mxCell>
        <mxCell id="daI0AMhPsT-8VJa9p6D3-18" value="7" style="text;html=1;align=center;verticalAlign=middle;resizable=0;points=[];autosize=1;strokeColor=none;fillColor=none;fontSize=18;" parent="WIyWlLk6GJQsqaUBKTNV-1" vertex="1">
          <mxGeometry x="1277.13" y="535" width="40" height="40" as="geometry" />
        </mxCell>
        <mxCell id="daI0AMhPsT-8VJa9p6D3-21" style="edgeStyle=orthogonalEdgeStyle;rounded=0;orthogonalLoop=1;jettySize=auto;html=1;fontSize=18;" parent="WIyWlLk6GJQsqaUBKTNV-1" source="daI0AMhPsT-8VJa9p6D3-19" edge="1">
          <mxGeometry relative="1" as="geometry">
            <mxPoint x="1300" y="760" as="targetPoint" />
          </mxGeometry>
        </mxCell>
        <mxCell id="daI0AMhPsT-8VJa9p6D3-25" style="edgeStyle=orthogonalEdgeStyle;rounded=0;orthogonalLoop=1;jettySize=auto;html=1;entryX=0.394;entryY=0;entryDx=0;entryDy=0;entryPerimeter=0;fontSize=18;" parent="WIyWlLk6GJQsqaUBKTNV-1" source="daI0AMhPsT-8VJa9p6D3-19" target="daI0AMhPsT-8VJa9p6D3-23" edge="1">
          <mxGeometry relative="1" as="geometry">
            <Array as="points">
              <mxPoint x="1060" y="695" />
            </Array>
          </mxGeometry>
        </mxCell>
        <mxCell id="daI0AMhPsT-8VJa9p6D3-19" value="&lt;font style=&quot;font-size: 18px&quot;&gt;sravnenie == dig_int&lt;/font&gt;" style="rhombus;whiteSpace=wrap;html=1;" parent="WIyWlLk6GJQsqaUBKTNV-1" vertex="1">
          <mxGeometry x="1077.12" y="655" width="200" height="80" as="geometry" />
        </mxCell>
        <mxCell id="daI0AMhPsT-8VJa9p6D3-28" value="" style="edgeStyle=orthogonalEdgeStyle;rounded=0;orthogonalLoop=1;jettySize=auto;html=1;fontSize=18;" parent="WIyWlLk6GJQsqaUBKTNV-1" source="daI0AMhPsT-8VJa9p6D3-23" edge="1">
          <mxGeometry relative="1" as="geometry">
            <mxPoint x="1180" y="820" as="targetPoint" />
            <Array as="points">
              <mxPoint x="1180" y="780" />
              <mxPoint x="1180" y="820" />
            </Array>
          </mxGeometry>
        </mxCell>
        <mxCell id="daI0AMhPsT-8VJa9p6D3-23" value="&quot;true&quot;" style="shape=parallelogram;perimeter=parallelogramPerimeter;whiteSpace=wrap;html=1;fixedSize=1;fontSize=18;" parent="WIyWlLk6GJQsqaUBKTNV-1" vertex="1">
          <mxGeometry x="1022.87" y="760" width="94.26" height="40" as="geometry" />
        </mxCell>
        <mxCell id="daI0AMhPsT-8VJa9p6D3-29" value="" style="edgeStyle=orthogonalEdgeStyle;rounded=0;orthogonalLoop=1;jettySize=auto;html=1;fontSize=18;" parent="WIyWlLk6GJQsqaUBKTNV-1" source="daI0AMhPsT-8VJa9p6D3-24" edge="1">
          <mxGeometry relative="1" as="geometry">
            <mxPoint x="1180" y="820" as="targetPoint" />
            <Array as="points">
              <mxPoint x="1180" y="780" />
              <mxPoint x="1180" y="820" />
            </Array>
          </mxGeometry>
        </mxCell>
        <mxCell id="daI0AMhPsT-8VJa9p6D3-24" value="&quot;falce&quot;" style="shape=parallelogram;perimeter=parallelogramPerimeter;whiteSpace=wrap;html=1;fixedSize=1;fontSize=18;" parent="WIyWlLk6GJQsqaUBKTNV-1" vertex="1">
          <mxGeometry x="1216.13" y="760" width="101" height="40" as="geometry" />
        </mxCell>
        <mxCell id="daI0AMhPsT-8VJa9p6D3-26" value="нет" style="text;html=1;align=center;verticalAlign=middle;resizable=0;points=[];autosize=1;strokeColor=none;fillColor=none;fontSize=18;" parent="WIyWlLk6GJQsqaUBKTNV-1" vertex="1">
          <mxGeometry x="1260" y="655" width="60" height="40" as="geometry" />
        </mxCell>
        <mxCell id="daI0AMhPsT-8VJa9p6D3-27" value="да" style="text;html=1;align=center;verticalAlign=middle;resizable=0;points=[];autosize=1;strokeColor=none;fillColor=none;fontSize=18;" parent="WIyWlLk6GJQsqaUBKTNV-1" vertex="1">
          <mxGeometry x="1034.25" y="655" width="60" height="40" as="geometry" />
        </mxCell>
        <mxCell id="daI0AMhPsT-8VJa9p6D3-30" value="конец" style="rounded=1;whiteSpace=wrap;html=1;fontSize=18;" parent="WIyWlLk6GJQsqaUBKTNV-1" vertex="1">
          <mxGeometry x="1117.12" y="820" width="120" height="60" as="geometry" />
        </mxCell>
        <mxCell id="vqy2xE6PO028PedZHlnm-1" value="8" style="text;html=1;align=center;verticalAlign=middle;resizable=0;points=[];autosize=1;strokeColor=none;fillColor=none;fontSize=18;" vertex="1" parent="WIyWlLk6GJQsqaUBKTNV-1">
          <mxGeometry x="1022.8700000000001" y="675" width="40" height="40" as="geometry" />
        </mxCell>
        <mxCell id="vqy2xE6PO028PedZHlnm-2" value="8.1" style="text;html=1;align=center;verticalAlign=middle;resizable=0;points=[];autosize=1;strokeColor=none;fillColor=none;fontSize=18;" vertex="1" parent="WIyWlLk6GJQsqaUBKTNV-1">
          <mxGeometry x="972.8700000000001" y="760" width="60" height="40" as="geometry" />
        </mxCell>
        <mxCell id="vqy2xE6PO028PedZHlnm-4" value="9" style="text;html=1;align=center;verticalAlign=middle;resizable=0;points=[];autosize=1;strokeColor=none;fillColor=none;fontSize=18;" vertex="1" parent="WIyWlLk6GJQsqaUBKTNV-1">
          <mxGeometry x="1246.63" y="830" width="40" height="40" as="geometry" />
        </mxCell>
      </root>
    </mxGraphModel>
  </diagram>
</mxfile>
